<svg width="26" height="28" viewBox="0 0 26 28" fill="none" xmlns="http://www.w3.org/2000/svg">
<path d="M4.74999 6.75H4.49999V9.95H3.51949C2.86454 9.95 2.23641 10.2102 1.77329 10.6733C1.31017 11.1364 1.04999 11.7645 1.04999 12.4195L1.04998 21.792L1.04999 21.7933C1.05337 22.446 1.31504 23.0709 1.7778 23.5312C2.24055 23.9916 2.86675 24.25 3.51949 24.25H17.4805C18.1354 24.25 18.7636 23.9898 19.2267 23.5267C19.6898 23.0636 19.95 22.4355 19.95 21.7805V12.4195C19.95 11.7645 19.6898 11.1364 19.2267 10.6733C18.7636 10.2102 18.1354 9.95 17.4805 9.95H16.5V6.75H16.25C16.5 6.75 16.5 6.74986 16.5 6.74969L16.5 6.74925L16.5 6.74797L16.5 6.74385L16.4998 6.72947C16.4996 6.71721 16.4992 6.69963 16.4984 6.6771C16.4969 6.63203 16.494 6.5671 16.4881 6.48512C16.4764 6.32125 16.4531 6.08877 16.4067 5.81046C16.3142 5.25503 16.1286 4.51063 15.7548 3.7632C15.3806 3.01479 14.8154 2.25878 13.9629 1.69042C13.1088 1.12103 11.9812 0.75 10.5 0.75C9.01874 0.75 7.89119 1.12103 7.03709 1.69042C6.18457 2.25878 5.61933 3.01479 5.24513 3.7632C4.87142 4.51063 4.68581 5.25503 4.59323 5.81046C4.54685 6.08877 4.52356 6.32125 4.51185 6.48512C4.506 6.5671 4.50303 6.63203 4.50153 6.6771C4.50078 6.69963 4.50039 6.71721 4.5002 6.72947L4.50002 6.74385L4.49999 6.74797L4.49999 6.74925L4.49999 6.74969C4.49999 6.74986 4.49999 6.75 4.74999 6.75ZM7.29999 7.325C7.29999 6.44702 7.3056 5.50972 7.70071 4.78534C7.89321 4.43243 8.18015 4.12849 8.61726 3.90993C9.0581 3.68952 9.66391 3.55 10.5 3.55C11.3361 3.55 11.9419 3.68952 12.3827 3.90993C12.8198 4.12849 13.1068 4.43243 13.2993 4.78534C13.6944 5.50972 13.7 6.44702 13.7 7.325V9.95H7.29999V7.325ZM10.5 19.15C10.0945 19.15 9.69819 19.0298 9.36107 18.8045C9.02395 18.5793 8.76119 18.2591 8.60603 17.8845C8.45087 17.5099 8.41028 17.0977 8.48938 16.7001C8.56848 16.3024 8.76372 15.9371 9.05042 15.6504C9.33712 15.3637 9.70239 15.1685 10.1001 15.0894C10.4977 15.0103 10.9099 15.0509 11.2845 15.206C11.6591 15.3612 11.9792 15.624 12.2045 15.9611C12.4298 16.2982 12.55 16.6945 12.55 17.1C12.55 17.6437 12.334 18.1651 11.9496 18.5496C11.5651 18.934 11.0437 19.15 10.5 19.15Z" fill="#0065A4" stroke="#EAF3FF" stroke-width="0.5"/>
<circle cx="18" cy="22" r="4.5" fill="white" stroke="#EAF3FF"/>
<path d="M18.1741 22.313L15.802 19.8271L15 20.6677L18.1741 24L25 16.8465L24.198 16L18.1741 22.313Z" fill="#14866D"/>
</svg>
